# xmcd
#
# Track frame offsets:
#   150
#   15708
#   34647
#   54259
#   71345
#   88050
#   106592
#   125245
#   139940
#   155541
#   172216
#   193139
#
# Disc length: 2821 seconds
#
# Revision: 0
# Processed by: cddbd v1.5PL3 Copyright (c) Steve Scherf et al.
# Submitted via: Media_Universe 3.0
#
DISCID=a40b030c
DTITLE=Travis Tritt - 36 All Time Greatest Hits
DYEAR=2002
DGENRE=Country
TTITLE0=More Than You'll Ever Know
TTITLE1=Start The Car
TTITLE2=Put Some Drive In Your Country
TTITLE3=No More Looking Over My Shoulder
TTITLE4=Looking Out For Number One
TTITLE5=I'm Gonna Be Somebody
TTITLE6=I Wish I Could Go Back Home
TTITLE7=Hard Times And Misery
TTITLE8=Drqaggin'My Heart Around
TTITLE9=Don't Give Your Heart To A Rambler
TTITLE10=Did You Fall Far Enough
TTITLE11=Between An Old Memory And Me
EXTD=
EXTT0=
EXTT1=
EXTT2=
EXTT3=
EXTT4=
EXTT5=
EXTT6=
EXTT7=
EXTT8=
EXTT9=
EXTT10=
EXTT11=
PLAYORDER=
